<?xml version="1.0" encoding="utf-8"?>
<!-- Generator: Adobe Illustrator 18.0.0, SVG Export Plug-In . SVG Version: 6.00 Build 0)  -->
<!DOCTYPE svg PUBLIC "-//W3C//DTD SVG 1.1//EN" "http://www.w3.org/Graphics/SVG/1.1/DTD/svg11.dtd">
<svg version="1.1" id="Layer_1" xmlns="http://www.w3.org/2000/svg" xmlns:xlink="http://www.w3.org/1999/xlink" x="0px" y="0px"
	 viewBox="0 0 1728 1728" enable-background="new 0 0 1728 1728" xml:space="preserve">
<g>
	<g>
		<path fill="#FFCB15" d="M1120.6,1446c-27.7,42.9-47.4,98.1-56.3,157.6c36.6-32,82-37.2,121.2-14.1c11,6.5,22.3,15.4,34,12.8
			c10.6-2.4,19-13.6,27.7-23.6c34-39,76-60.8,118-61.5c-9.1-34.8-43.7-67.3-57.4-98.3c-8.2-18.6-20.6-19.5-33.8-28.6
			c-54.1-37-84,84.6-138.1,47.8"/>
		<g>
			<path fill="#FFCB15" d="M1115.9,1443.1c-30.5,47.8-48.3,102.8-56.7,158.9c-0.9,5.4,4.8,8.9,9.1,5.2
				c22.9-19.5,51.5-30.3,81.6-25.5c14.3,2.2,27.1,8.4,39,16c10.8,6.7,22.1,12.6,35.1,8.7c11.5-3.5,19.9-15.4,27.3-24
				c10.2-11.7,21.6-22.3,34.4-31.6c23.4-17.1,51.1-27.5,79.9-28.1c3.5,0,6.3-3.5,5.2-6.9c-10.6-37.9-41.8-64.5-58-99.6
				c-7.6-16.5-21.6-21.2-35.7-30.5c-9.3-6.1-19-8.9-30.1-7.1c-38.3,5.6-65.6,82.5-108,55c-5.8-3.9-11.3,5.6-5.4,9.3
				c42.2,27.5,71.2-27.7,101.5-47.6c8-5.2,16.9-7.8,26.2-5.4c6.5,1.7,11.9,6.5,17.7,9.7c8.2,4.5,15.8,8,21.2,16
				c5.2,7.6,8.7,16.9,13.6,24.9c5.4,8.4,11.3,16.7,17.1,24.7c11.9,16.7,23.8,33.8,29.2,53.5c1.7-2.4,3.5-4.5,5.2-6.9
				c-27.5,0.6-53.2,9.5-76.6,23.8c-12.8,7.8-24.2,17.5-34.8,27.9c-10.8,10.6-20.6,28.6-35.7,33.3c-8,2.4-17.5-4.5-23.8-8.4
				c-6.3-3.9-12.8-7.6-19.5-10.4c-12.8-5.2-25.8-8-39.6-8.2c-27.9-0.4-53.9,12.3-74.7,29.9c3,1.7,6.1,3.5,9.1,5.2
				c8.2-55,25.5-109.1,55.6-156.3C1129.1,1442.7,1119.7,1437.3,1115.9,1443.1L1115.9,1443.1z"/>
		</g>
	</g>
	<g>
		<path fill="#FFCB15" d="M642.9,1446c27.7,42.9,47.4,98.1,56.3,157.6c-36.6-32-82-37.2-121.2-14.1c-11,6.5-22.3,15.4-34,12.8
			c-10.6-2.4-19-13.6-27.7-23.6c-34-39-76-60.8-118-61.5c9.1-34.8,43.7-67.3,57.4-98.3c8.2-18.6,20.6-19.5,33.8-28.6
			c54.1-37,84,84.6,138.1,47.8"/>
		<g>
			<path fill="#FFCB15" d="M638.1,1448.6c30.1,47.2,47.4,101.1,55.6,156.3c3-1.7,6.1-3.5,9.1-5.2c-21.2-18.2-46.3-29.4-74.7-29.9
				c-13.6-0.2-27.1,3-39.6,8.2c-13.2,5.4-28.4,21-43.5,18.8c-7.6-1.1-13.6-8.7-18.2-13.9c-5.8-6.5-11.5-13.2-17.5-19.3
				c-10.4-10.6-22.3-19.9-34.9-27.9c-22.9-14.7-49.6-23.2-76.6-23.8c1.7,2.4,3.5,4.5,5.2,6.9c10.4-37.4,41.6-65.8,58.4-100.2
				c3.9-8,10.8-12.3,18.2-16.5c6.5-3.5,12.3-7.6,18.8-10.8c9.5-4.5,19.7-1.9,28.4,3.2c31.6,18.6,59.3,76.8,102.8,48.5
				c5.8-3.9,0.4-13.2-5.4-9.3c-21.4,13.9-39.4-0.4-55-15.6c-15.2-14.7-30.1-33.8-51.3-39c-9.7-2.4-19.5,0-28.1,4.8
				c-14.1,7.6-29.2,14.9-37.7,29.4c-10,17.1-19.7,33.3-31,49.6c-11.7,16.5-22.9,33.8-28.4,53.2c-0.9,3.5,1.7,6.7,5.2,6.9
				c28.1,0.9,53.9,10.6,77.1,26.2c12.8,8.7,24.2,19.3,34.6,30.7c8.4,9.3,17.1,22.9,29.9,26.8c11.7,3.7,21.9-0.9,32-6.7
				c12.6-7.4,24.5-14.1,39-17.3c30.5-6.9,61.7,5.2,84.9,24.9c4.3,3.7,10,0,9.1-5.2c-8.4-55.8-26.2-111-56.7-158.9
				C643.8,1437.3,634.4,1442.7,638.1,1448.6L638.1,1448.6z"/>
		</g>
	</g>
	<g>
		<path d="M1354.2,640.7c0,0,8.9,10.6,39.4,67.1c16.9,31.2,29.4,57.1,61.5,62.3c40.7,6.7,79.4-20.3,113.4-46.8
			c45.9-35.5,91.6-71.9,136.6-108.9c2.6,103.9,1.5,218.8-60.2,295.9c-20.3,25.5-46.1,44.8-69.3,67.1c-62.3,60.4-152,121.9-193.3,202
			C1351.8,1050.3,1388.2,852.4,1354.2,640.7"/>
	</g>
	<g>
		<path d="M361.9,644c1.7-8.9-8.9,11.3-39.2,70.6c-16.7,32.7-29.2,60-61.3,65.6c-40.7,6.9-79.4-21.9-113.4-49.6
			C102,692.7,56.3,654.4,11,615.2c-2.2,109.3-0.6,230.5,61.3,311.9c20.6,26.8,46.3,47.4,69.5,71c62.6,63.9,178.8,148.3,220.4,232.9
			C392,1094.9,328.6,866.9,361.9,644"/>
	</g>
	<path fill="#FEFFFF" d="M951.1,182.3c12.3,27.1-27.7,50-48.1,27.7c-0.2-0.2-0.4-0.2-0.9-0.4c0.2,0,0.4,0.2,0.6,0.2l0,0
		c-0.4-0.2-0.6-0.2-1.3-0.4c-0.9-0.2-1.9-0.6-2.8-0.9c-5.6-1.7-11.5-3-17.3-4.1c-10.6-1.9-15.4-2.2-27.3-3.7
		c-14.7-1.9-27.3-10.8-27.9-26.6c-271,13.9-486.6,237.9-486.6,512.4c0,283.3,229.7,296.1,513,296.1s513-12.8,513-296.1
		C1365.4,435.7,1192.9,227.3,951.1,182.3z"/>
	<path fill="#FEFFFF" d="M1450.5,982.1c0,305-102.8,536.6-559.1,552.4c-412.8,14.1-602.6-247.6-611.7-552.4
		c-11-368.4,302.8-552.4,611.7-552.4S1450.5,677.1,1450.5,982.1z"/>
	<g>
		<g>
			<path d="M582.3,463.7c21,0,21-32.5,0-32.5S561.3,463.7,582.3,463.7L582.3,463.7z"/>
		</g>
	</g>
	<g>
		<g>
			<path d="M1133,457.6c21,0,21-32.5,0-32.5C1112,425.1,1112,457.6,1133,457.6L1133,457.6z"/>
		</g>
	</g>
	<path d="M849,511.1c-7.8-84-29-173.2-85.3-210.2c-114.9-75.5-326.9,86.6-326.9,86.6s55.4-84,127.3-137.9
		c109.1-81.4,222.7-77.1,293.1-76.8l-3-0.2c70.3,6.7,177.9-4.3,288.5,77.1c72.9,53.7,131,137.2,131,137.2S1057,225.3,940.5,300.9
		c-56.9,37-78.4,126.2-86.4,210.2"/>
	<g>
		<path fill="#FFCB15" d="M779.7,506.1c34.9,24,110.4,19.9,140.7-6.7c1.5-1.3,2.8-3,3.5-5.2l0,0c3.5-8.7-2.2-18.6-10.4-18.6
			l-141.8,0.6L779.7,506.1z"/>
		<g>
			<path fill="#FFCB15" d="M776.9,510.6c32.5,21.4,79.2,20.3,114.9,9.5c14.1-4.3,33.6-12.1,37.9-27.5c3.5-12.8-7.6-22.5-19-22.5
				c-46.3,0.2-92.9,0.4-139.2,0.6c-3.5,0-6.1,3.5-5.2,6.9c2.8,10,5.4,19.9,8.2,29.9c1.9,6.7,12.3,3.9,10.4-2.8
				c-2.8-10-5.4-19.9-8.2-29.9c-1.7,2.4-3.5,4.5-5.2,6.9c40.9-0.2,81.6-0.4,122.5-0.4c6.3,0,12.6,0,18.8,0c14.3,0,3.9,14.7-0.4,17.7
				c-6.9,5-15.2,8.4-23.4,11c-32.7,10.8-77.1,11-106.7-8.4C776.4,497.4,771,506.9,776.9,510.6z"/>
		</g>
	</g>
</g>
</svg>
